<svg xmlns="http://www.w3.org/2000/svg" xmlns:xlink="http://www.w3.org/1999/xlink" width="500" zoomAndPan="magnify" viewBox="0 0 375 374.999991" height="500" preserveAspectRatio="xMidYMid meet" version="1.0"><defs><g/><clipPath id="5927a45900"><path d="M 0.519531 1.863281 L 73.96875 1.863281 L 73.96875 123.511719 L 0.519531 123.511719 Z M 0.519531 1.863281 " clip-rule="nonzero"/></clipPath><clipPath id="5be27609d3"><rect x="0" width="141" y="0" height="52"/></clipPath><clipPath id="826affbb07"><path d="M 77 0.800781 L 321.558594 0.800781 L 321.558594 97 L 77 97 Z M 77 0.800781 " clip-rule="nonzero"/></clipPath><clipPath id="21d97477cd"><rect x="0" width="245" y="0" height="97"/></clipPath><clipPath id="25d67fd0dd"><rect x="0" width="322" y="0" height="124"/></clipPath></defs><g transform="matrix(1, 0, 0, 1, 25, 118)"><g clip-path="url(#25d67fd0dd)"><g clip-path="url(#5927a45900)"><path fill="#c73737" d="M 58.777344 64.316406 C 57.070312 58.367188 55.351562 52.542969 60.347656 46.953125 C 58.601562 52.601562 60.707031 57.394531 62.296875 62.261719 C 62.796875 63.785156 63.3125 65.351562 62.171875 66.8125 C 61.914062 67.148438 61.226562 67.558594 60.984375 67.429688 C 59.070312 66.46875 57.105469 66.828125 55.253906 67.324219 C 52.921875 67.945312 50.734375 67.679688 48.429688 67.277344 C 46.824219 66.996094 45.101562 67.210938 43.449219 67.378906 C 43.175781 67.410156 42.90625 67.382812 42.644531 67.300781 C 42.382812 67.214844 42.144531 67.082031 41.941406 66.898438 C 41.734375 66.714844 41.574219 66.5 41.460938 66.246094 C 41.34375 65.996094 41.289062 65.730469 41.285156 65.457031 C 41.28125 64.222656 41.441406 63.015625 41.761719 61.828125 C 42.476562 58.996094 43.339844 56.199219 44.074219 53.367188 C 44.664062 51.097656 44.332031 48.859375 43.457031 46.726562 C 42.265625 43.933594 41.902344 41.039062 42.367188 38.035156 C 40.488281 39.554688 39.664062 41.265625 39.585938 43.007812 C 37.382812 43.25 35.257812 43.457031 33.117188 43.738281 C 31.570312 43.941406 30.25 43.757812 29.355469 42.316406 C 29.058594 41.941406 28.738281 41.59375 28.394531 41.265625 C 28.488281 42.335938 28.546875 43.023438 28.621094 43.898438 C 26.769531 42.195312 26.679688 40.136719 27.273438 38.167969 C 27.703125 36.746094 28.480469 35.179688 29.589844 34.269531 C 32.601562 31.796875 35.863281 29.65625 39.039062 27.398438 C 40.039062 26.6875 41.03125 26.898438 42.085938 27.375 C 47.738281 29.953125 50.761719 34.574219 51.253906 40.503906 C 51.875 47.820312 51.84375 55.191406 52.054688 62.539062 C 52.125 64.855469 52.054688 64.875 54.363281 64.703125 C 55.753906 64.640625 57.113281 64.46875 58.777344 64.316406 Z M 48.425781 73.738281 C 46.398438 72.4375 44.292969 71.285156 42.109375 70.28125 C 39.445312 69.042969 37.882812 66.980469 38.371094 64.097656 C 38.832031 61.382812 39.847656 58.773438 40.4375 56.0625 C 40.761719 54.519531 40.878906 52.964844 40.785156 51.394531 C 40.761719 50.917969 39.8125 50.121094 39.265625 50.105469 C 36.929688 50.027344 35.414062 48.933594 34.375 46.925781 C 34.09375 46.53125 33.714844 46.28125 33.242188 46.183594 C 32.027344 45.875 30.769531 45.671875 29.148438 45.347656 C 28.324219 46.828125 27.167969 48.539062 26.410156 50.40625 C 25.945312 51.621094 25.828125 52.863281 26.058594 54.140625 C 27.136719 59.753906 31.625 62.996094 35.042969 67.125 C 35.535156 64.433594 35.96875 61.976562 36.433594 59.523438 L 36.871094 59.605469 C 36.683594 64.675781 36.496094 69.746094 36.308594 74.804688 L 37.582031 75.265625 L 37.554688 75.5 L 36.355469 75.589844 C 36.265625 78.261719 36.695312 79.132812 39.160156 79.84375 C 40.707031 80.285156 42.441406 80.539062 43.976562 80.257812 C 46.367188 79.820312 48.664062 78.855469 51.125 78.074219 C 50.707031 76.0625 49.832031 74.632812 48.425781 73.738281 Z M 63.3125 85.972656 C 63.464844 85.023438 63.3125 84.425781 62.300781 84.09375 C 61.183594 83.726562 60.121094 83.191406 59.035156 82.722656 C 54.738281 80.867188 50.414062 80.558594 46.039062 82.476562 C 44.628906 83.097656 43.140625 83.542969 41.753906 84.195312 C 41.25 84.476562 40.953125 84.90625 40.863281 85.476562 C 40.824219 88.214844 42.007812 90.402344 44.183594 92.152344 L 44.417969 90.5625 L 46.011719 93.292969 C 46.113281 92.402344 46.179688 91.847656 46.257812 91.179688 L 48.234375 93.652344 L 48.234375 90.46875 L 48.5 90.46875 C 48.648438 91.058594 48.808594 91.652344 48.988281 92.433594 C 49.222656 91.507812 49.390625 90.859375 49.605469 90.03125 C 49.867188 90.425781 49.996094 90.609375 50.121094 90.804688 L 51.148438 89.570312 C 51.351562 90.285156 51.476562 90.730469 51.589844 91.113281 C 51.796875 90.6875 52.019531 90.21875 52.359375 89.515625 C 52.5625 90.246094 52.6875 90.683594 52.855469 91.292969 C 53.230469 90.714844 53.476562 90.34375 53.847656 89.75 L 54.691406 91.914062 C 54.917969 91.242188 55.085938 90.746094 55.253906 90.253906 L 55.535156 90.273438 C 55.664062 91.234375 55.796875 92.195312 55.964844 93.410156 L 57.609375 90.691406 C 57.746094 91.753906 57.835938 92.460938 57.941406 93.304688 L 59.433594 90.339844 C 59.519531 91.238281 59.558594 91.667969 59.605469 92.15625 C 62.464844 89.554688 62.828125 88.886719 63.3125 85.972656 Z M 67.3125 62.359375 C 67.234375 60.894531 66.804688 59.25 65.980469 58.070312 C 64.054688 55.289062 63.945312 53.410156 67.941406 52.53125 C 70.785156 51.914062 72.742188 49.101562 72.816406 46.226562 C 72.054688 46.191406 71.289062 46.199219 70.527344 46.253906 C 70.144531 46.320312 69.859375 46.527344 69.679688 46.871094 C 69.015625 49.035156 67.371094 49.878906 65.351562 49.910156 C 63.789062 49.933594 63.242188 50.746094 63.070312 52.03125 C 62.945312 52.738281 62.960938 53.445312 63.121094 54.148438 C 63.886719 56.851562 64.859375 59.503906 65.550781 62.230469 C 66.605469 66.371094 65.40625 68.625 61.476562 70.347656 C 61.207031 70.492188 60.925781 70.613281 60.632812 70.714844 C 58.03125 71.402344 56.183594 73.226562 54.394531 75.039062 C 53.699219 75.742188 53.421875 76.855469 52.898438 77.898438 C 55.105469 78.726562 56.988281 79.527344 58.933594 80.136719 C 60.050781 80.492188 61.191406 80.617188 62.355469 80.515625 C 63.523438 80.417969 64.625 80.09375 65.664062 79.554688 C 66.414062 79.175781 67.308594 78.429688 67.476562 77.699219 C 67.789062 76.417969 67.5625 75.027344 67.5625 73.695312 L 65.804688 73.339844 C 66.394531 73.113281 66.621094 73.011719 66.855469 72.945312 C 67.089844 72.878906 67.355469 72.832031 67.386719 72.824219 C 67.375 69.230469 67.503906 65.785156 67.3125 62.359375 Z M 21.402344 100.726562 C 18.671875 95.996094 16.683594 91.453125 15.851562 86.507812 C 15.34375 83.714844 15.1875 80.90625 15.382812 78.078125 C 15.804688 73.085938 18.589844 69.160156 21.976562 65.644531 C 22.332031 65.277344 22.664062 64.894531 23.007812 64.515625 C 22.632812 64.4375 22.289062 64.511719 21.972656 64.730469 C 21.242188 65.210938 20.496094 65.675781 19.808594 66.210938 C 14.09375 70.648438 11.101562 76.484375 12.082031 83.691406 C 13.492188 94.058594 19.453125 102.238281 25.746094 110.175781 C 22.070312 101.265625 23.839844 92.660156 26.980469 84.109375 C 23.339844 88.90625 21.835938 94.421875 21.402344 100.726562 Z M 5.800781 80.859375 C 5.582031 80.015625 5.378906 79.167969 5.164062 78.320312 C 3.101562 70.199219 5.035156 63.171875 10.957031 57.242188 C 14.222656 53.96875 17.449219 50.644531 20.648438 47.320312 C 20.886719 47.074219 20.929688 46.644531 21.066406 46.296875 C 20.753906 46.296875 20.34375 46.199219 20.136719 46.359375 C 15.882812 49.828125 11.363281 53.054688 7.472656 56.914062 C 2.644531 61.664062 1.34375 67.773438 2.5625 74.421875 C 3.441406 79.1875 5.457031 83.503906 7.785156 87.695312 C 7.964844 87.949219 8.167969 88.175781 8.402344 88.378906 C 6.859375 80.269531 8.203125 72.859375 12.984375 66.105469 C 7.808594 69.828125 6.375 75.1875 6.21875 81.308594 C 5.925781 81 5.816406 80.941406 5.800781 80.859375 Z M 16.773438 32.0625 C 10.648438 37.296875 5.59375 43.414062 1.617188 50.421875 C 1.203125 51.148438 0.902344 51.9375 0.546875 52.695312 C 0.984375 52.59375 1.355469 52.378906 1.660156 52.050781 C 3.382812 50.503906 4.980469 48.796875 6.855469 47.472656 C 10.453125 44.910156 14.601562 43.503906 18.785156 42.167969 C 19.804688 41.84375 20.664062 41.019531 21.597656 40.425781 L 21.289062 39.921875 C 16.265625 40.5625 11.59375 42.203125 7.269531 44.835938 C 12.710938 38.347656 19.554688 33.785156 26.9375 29.890625 C 23.183594 29.1875 19.671875 29.59375 16.773438 32.0625 Z M 30.902344 86.3125 C 28.585938 91.84375 27.726562 97.4375 30.285156 103.164062 C 31.894531 106.773438 34.769531 109.253906 37.910156 111.46875 C 42.855469 114.964844 48.289062 117.933594 51.582031 123.394531 C 51.339844 122.335938 50.996094 121.3125 50.550781 120.320312 C 48.949219 116.757812 46.023438 114.40625 43.066406 112.058594 C 42.140625 111.320312 41.40625 110.34375 40.691406 109.585938 L 40.691406 110.257812 C 34.761719 107.144531 30.992188 101.246094 31.046875 94.574219 C 31.074219 90.972656 31.703125 87.378906 32.046875 83.949219 C 31.726562 84.59375 31.273438 85.433594 30.902344 86.3125 Z M 8.78125 30.421875 C 10.65625 28.605469 12.449219 26.679688 14.480469 25.054688 C 15.550781 24.195312 17.007812 23.742188 18.359375 23.339844 C 21.140625 22.523438 23.703125 23.542969 26.300781 24.386719 C 28.042969 24.957031 29.871094 25.269531 31.746094 25.710938 C 30.085938 24.496094 28.53125 23.503906 27.15625 22.3125 C 23.6875 19.296875 18.589844 18.738281 15.054688 21.269531 C 11.40625 23.886719 9.332031 27.710938 7.589844 31.78125 C 7.984375 31.316406 8.355469 30.835938 8.78125 30.421875 Z M 62.035156 41.695312 C 61.789062 40.152344 61.910156 38.15625 60.988281 37.246094 C 59.25 35.53125 57.183594 34.226562 56.871094 31.339844 C 55.632812 33.222656 54.484375 35.015625 53.84375 36.96875 C 52.535156 40.949219 52.117188 42.167969 57.65625 41.472656 C 60.164062 41.164062 60.363281 41.164062 61.722656 43.375 C 61.859375 42.695312 62.109375 42.167969 62.035156 41.695312 Z M 18.8125 16.039062 C 22.144531 15.492188 25.582031 15.542969 28.960938 15.332031 C 24.796875 14.085938 20.558594 13.746094 16.25 14.308594 L 29.6875 6.507812 C 26.632812 5.734375 13.6875 13.402344 9.21875 18.585938 C 12.292969 17.738281 15.507812 16.585938 18.8125 16.039062 Z M 43.390625 14.898438 C 41.136719 9.863281 38.753906 5.03125 32.527344 3.855469 C 35.398438 2.59375 38.195312 2.40625 41.121094 2.703125 C 40.78125 2.316406 40.386719 1.890625 39.992188 1.890625 C 38.402344 1.847656 36.816406 1.90625 35.234375 2.070312 C 32.234375 2.429688 29.257812 2.921875 26.046875 3.390625 C 33.335938 5.105469 38.257812 10.140625 43.390625 14.898438 Z M 64.578125 43.734375 C 66.503906 42.597656 68.421875 43.011719 70.363281 43.53125 C 71.535156 43.839844 72.75 44.054688 73.867188 43.191406 C 72.113281 41.257812 67.9375 40.359375 65.851562 41.546875 C 65.203125 41.914062 64.804688 42.71875 64.289062 43.320312 Z M 40.113281 47.53125 C 39.648438 46.109375 38.808594 45.152344 37.140625 45.367188 C 36.738281 45.414062 36.09375 45.609375 36.039062 45.851562 C 35.957031 46.199219 36.203125 46.898438 36.488281 47.019531 C 37.589844 47.488281 38.765625 47.785156 39.910156 48.140625 C 39.972656 47.929688 40.042969 47.726562 40.113281 47.53125 Z M 64.40625 47.738281 C 66.878906 48.046875 67.804688 47.53125 68.152344 45.640625 C 65.933594 44.859375 64.734375 45.523438 64.398438 47.738281 Z M 64.40625 47.738281 " fill-opacity="1" fill-rule="nonzero"/></g><g transform="matrix(1, 0, 0, 1, 129, 70)"><g clip-path="url(#5be27609d3)"><g fill="#010f69" fill-opacity="1"><g transform="translate(0.304106, 40.846132)"><g><path d="M 10 -23.265625 L 10 -15.71875 L 23.234375 -15.71875 L 23.234375 -10.40625 L 10 -10.40625 L 10 0 L 3.390625 0 L 3.390625 -28.578125 L 24.984375 -28.578125 L 24.984375 -23.265625 Z M 10 -23.265625 "/></g></g></g><g fill="#010f69" fill-opacity="1"><g transform="translate(25.977729, 40.846132)"><g><path d="M 2.9375 -21.96875 L 9.3125 -21.96875 L 9.3125 0 L 2.9375 0 Z M 6.125 -25.03125 C 4.957031 -25.03125 4.003906 -25.367188 3.265625 -26.046875 C 2.535156 -26.722656 2.171875 -27.566406 2.171875 -28.578125 C 2.171875 -29.585938 2.535156 -30.429688 3.265625 -31.109375 C 4.003906 -31.785156 4.957031 -32.125 6.125 -32.125 C 7.289062 -32.125 8.242188 -31.796875 8.984375 -31.140625 C 9.722656 -30.492188 10.09375 -29.679688 10.09375 -28.703125 C 10.09375 -27.640625 9.722656 -26.757812 8.984375 -26.0625 C 8.242188 -25.375 7.289062 -25.03125 6.125 -25.03125 Z M 6.125 -25.03125 "/></g></g></g><g fill="#010f69" fill-opacity="1"><g transform="translate(38.263548, 40.846132)"><g><path d="M 16.296875 -22.296875 C 19.015625 -22.296875 21.207031 -21.476562 22.875 -19.84375 C 24.550781 -18.207031 25.390625 -15.785156 25.390625 -12.578125 L 25.390625 0 L 19.03125 0 L 19.03125 -11.59375 C 19.03125 -13.332031 18.644531 -14.628906 17.875 -15.484375 C 17.113281 -16.347656 16.015625 -16.78125 14.578125 -16.78125 C 12.972656 -16.78125 11.691406 -16.28125 10.734375 -15.28125 C 9.785156 -14.289062 9.3125 -12.816406 9.3125 -10.859375 L 9.3125 0 L 2.9375 0 L 2.9375 -21.96875 L 9.015625 -21.96875 L 9.015625 -19.390625 C 9.859375 -20.316406 10.90625 -21.03125 12.15625 -21.53125 C 13.414062 -22.039062 14.796875 -22.296875 16.296875 -22.296875 Z M 16.296875 -22.296875 "/></g></g></g><g fill="#c53636" fill-opacity="1"><g transform="translate(66.470773, 40.846132)"><g><path d="M 9.3125 -23.1875 L 0.15625 -23.1875 L 0.15625 -28.578125 L 25.0625 -28.578125 L 25.0625 -23.1875 L 15.921875 -23.1875 L 15.921875 0 L 9.3125 0 Z M 9.3125 -23.1875 "/></g></g></g><g fill="#c53636" fill-opacity="1"><g transform="translate(90.593252, 40.846132)"><g><path d="M 11.796875 -22.296875 C 15.203125 -22.296875 17.816406 -21.484375 19.640625 -19.859375 C 21.460938 -18.242188 22.375 -15.800781 22.375 -12.53125 L 22.375 0 L 16.40625 0 L 16.40625 -2.734375 C 15.207031 -0.691406 12.976562 0.328125 9.71875 0.328125 C 8.03125 0.328125 6.566406 0.0390625 5.328125 -0.53125 C 4.085938 -1.101562 3.140625 -1.890625 2.484375 -2.890625 C 1.835938 -3.898438 1.515625 -5.046875 1.515625 -6.328125 C 1.515625 -8.367188 2.28125 -9.972656 3.8125 -11.140625 C 5.351562 -12.316406 7.726562 -12.90625 10.9375 -12.90625 L 16 -12.90625 C 16 -14.289062 15.578125 -15.359375 14.734375 -16.109375 C 13.890625 -16.859375 12.625 -17.234375 10.9375 -17.234375 C 9.769531 -17.234375 8.617188 -17.046875 7.484375 -16.671875 C 6.359375 -16.304688 5.398438 -15.8125 4.609375 -15.1875 L 2.328125 -19.640625 C 3.523438 -20.484375 4.957031 -21.132812 6.625 -21.59375 C 8.300781 -22.0625 10.023438 -22.296875 11.796875 -22.296875 Z M 11.3125 -3.953125 C 12.394531 -3.953125 13.359375 -4.203125 14.203125 -4.703125 C 15.046875 -5.210938 15.644531 -5.957031 16 -6.9375 L 16 -9.1875 L 11.640625 -9.1875 C 9.023438 -9.1875 7.71875 -8.328125 7.71875 -6.609375 C 7.71875 -5.796875 8.035156 -5.148438 8.671875 -4.671875 C 9.316406 -4.191406 10.195312 -3.953125 11.3125 -3.953125 Z M 11.3125 -3.953125 "/></g></g></g><g fill="#c53636" fill-opacity="1"><g transform="translate(115.777138, 40.846132)"><g><path d="M 16.90625 0 L 12.078125 -6.734375 L 7.109375 0 L 0.15625 0 L 8.609375 -11.0625 L 0.453125 -21.96875 L 7.59375 -21.96875 L 12.25 -15.5625 L 17.03125 -21.96875 L 23.796875 -21.96875 L 15.640625 -11.234375 L 24.125 0 Z M 16.90625 0 "/></g></g></g></g></g><g clip-path="url(#826affbb07)"><g transform="matrix(1, 0, 0, 1, 77, 0)"><g clip-path="url(#21d97477cd)"><g fill="#010f69" fill-opacity="1"><g transform="translate(0.537839, 76.250685)"><g><path d="M 19.296875 -44.890625 L 19.296875 -30.328125 L 44.8125 -30.328125 L 44.8125 -20.078125 L 19.296875 -20.078125 L 19.296875 0 L 6.53125 0 L 6.53125 -55.140625 L 48.203125 -55.140625 L 48.203125 -44.890625 Z M 19.296875 -44.890625 "/></g></g></g><g fill="#010f69" fill-opacity="1"><g transform="translate(49.763735, 76.250685)"><g><path d="M 25.828125 0.625 C 21.367188 0.625 17.363281 -0.304688 13.8125 -2.171875 C 10.269531 -4.035156 7.5 -6.617188 5.5 -9.921875 C 3.507812 -13.234375 2.515625 -16.988281 2.515625 -21.1875 C 2.515625 -25.382812 3.507812 -29.132812 5.5 -32.4375 C 7.5 -35.75 10.269531 -38.335938 13.8125 -40.203125 C 17.363281 -42.066406 21.367188 -43 25.828125 -43 C 30.296875 -43 34.285156 -42.066406 37.796875 -40.203125 C 41.316406 -38.335938 44.078125 -35.75 46.078125 -32.4375 C 48.078125 -29.132812 49.078125 -25.382812 49.078125 -21.1875 C 49.078125 -16.988281 48.078125 -13.234375 46.078125 -9.921875 C 44.078125 -6.617188 41.316406 -4.035156 37.796875 -2.171875 C 34.285156 -0.304688 30.296875 0.625 25.828125 0.625 Z M 25.828125 -9.453125 C 28.984375 -9.453125 31.570312 -10.515625 33.59375 -12.640625 C 35.613281 -14.765625 36.625 -17.613281 36.625 -21.1875 C 36.625 -24.757812 35.613281 -27.609375 33.59375 -29.734375 C 31.570312 -31.859375 28.984375 -32.921875 25.828125 -32.921875 C 22.679688 -32.921875 20.082031 -31.859375 18.03125 -29.734375 C 15.988281 -27.609375 14.96875 -24.757812 14.96875 -21.1875 C 14.96875 -17.613281 15.988281 -14.765625 18.03125 -12.640625 C 20.082031 -10.515625 22.679688 -9.453125 25.828125 -9.453125 Z M 25.828125 -9.453125 "/></g></g></g><g fill="#010f69" fill-opacity="1"><g transform="translate(101.352532, 76.250685)"><g><path d="M 26.15625 0.625 C 21.632812 0.625 17.570312 -0.304688 13.96875 -2.171875 C 10.375 -4.035156 7.566406 -6.617188 5.546875 -9.921875 C 3.523438 -13.234375 2.515625 -16.988281 2.515625 -21.1875 C 2.515625 -25.382812 3.523438 -29.132812 5.546875 -32.4375 C 7.566406 -35.75 10.375 -38.335938 13.96875 -40.203125 C 17.570312 -42.066406 21.632812 -43 26.15625 -43 C 30.613281 -43 34.507812 -42.066406 37.84375 -40.203125 C 41.175781 -38.335938 43.601562 -35.675781 45.125 -32.21875 L 35.609375 -27.09375 C 33.398438 -30.976562 30.222656 -32.921875 26.078125 -32.921875 C 22.867188 -32.921875 20.210938 -31.867188 18.109375 -29.765625 C 16.015625 -27.671875 14.96875 -24.8125 14.96875 -21.1875 C 14.96875 -17.5625 16.015625 -14.695312 18.109375 -12.59375 C 20.210938 -10.5 22.867188 -9.453125 26.078125 -9.453125 C 30.273438 -9.453125 33.453125 -11.394531 35.609375 -15.28125 L 45.125 -10.078125 C 43.601562 -6.722656 41.175781 -4.097656 37.84375 -2.203125 C 34.507812 -0.316406 30.613281 0.625 26.15625 0.625 Z M 26.15625 0.625 "/></g></g></g><g fill="#010f69" fill-opacity="1"><g transform="translate(147.900593, 76.250685)"><g><path d="M 48.359375 -42.375 L 48.359375 0 L 36.703125 0 L 36.703125 -5.046875 C 35.078125 -3.203125 33.132812 -1.796875 30.875 -0.828125 C 28.613281 0.140625 26.171875 0.625 23.546875 0.625 C 17.984375 0.625 13.570312 -0.972656 10.3125 -4.171875 C 7.0625 -7.378906 5.4375 -12.132812 5.4375 -18.4375 L 5.4375 -42.375 L 17.71875 -42.375 L 17.71875 -20.25 C 17.71875 -13.414062 20.582031 -10 26.3125 -10 C 29.25 -10 31.609375 -10.957031 33.390625 -12.875 C 35.179688 -14.789062 36.078125 -17.640625 36.078125 -21.421875 L 36.078125 -42.375 Z M 48.359375 -42.375 "/></g></g></g><g fill="#010f69" fill-opacity="1"><g transform="translate(202.009748, 76.250685)"><g><path d="M 19.921875 0.625 C 16.410156 0.625 12.972656 0.191406 9.609375 -0.671875 C 6.242188 -1.535156 3.566406 -2.625 1.578125 -3.9375 L 5.671875 -12.765625 C 7.554688 -11.554688 9.835938 -10.570312 12.515625 -9.8125 C 15.203125 -9.050781 17.832031 -8.671875 20.40625 -8.671875 C 25.601562 -8.671875 28.203125 -9.957031 28.203125 -12.53125 C 28.203125 -13.726562 27.488281 -14.585938 26.0625 -15.109375 C 24.644531 -15.640625 22.46875 -16.09375 19.53125 -16.46875 C 16.0625 -16.988281 13.195312 -17.585938 10.9375 -18.265625 C 8.6875 -18.953125 6.734375 -20.160156 5.078125 -21.890625 C 3.421875 -23.628906 2.59375 -26.097656 2.59375 -29.296875 C 2.59375 -31.972656 3.367188 -34.347656 4.921875 -36.421875 C 6.472656 -38.503906 8.726562 -40.117188 11.6875 -41.265625 C 14.65625 -42.421875 18.164062 -43 22.21875 -43 C 25.207031 -43 28.1875 -42.671875 31.15625 -42.015625 C 34.125 -41.359375 36.578125 -40.453125 38.515625 -39.296875 L 34.421875 -30.5625 C 30.691406 -32.664062 26.625 -33.71875 22.21875 -33.71875 C 19.59375 -33.71875 17.617188 -33.347656 16.296875 -32.609375 C 14.984375 -31.867188 14.328125 -30.921875 14.328125 -29.765625 C 14.328125 -28.453125 15.035156 -27.535156 16.453125 -27.015625 C 17.878906 -26.492188 20.140625 -25.992188 23.234375 -25.515625 C 26.703125 -24.941406 29.535156 -24.328125 31.734375 -23.671875 C 33.941406 -23.015625 35.859375 -21.816406 37.484375 -20.078125 C 39.117188 -18.347656 39.9375 -15.9375 39.9375 -12.84375 C 39.9375 -10.21875 39.144531 -7.878906 37.5625 -5.828125 C 35.988281 -3.773438 33.691406 -2.1875 30.671875 -1.0625 C 27.660156 0.0625 24.078125 0.625 19.921875 0.625 Z M 19.921875 0.625 "/></g></g></g></g></g></g></g></g></svg>